<svg height="1em" style="flex:none;line-height:1" viewBox="0 0 24 24" width="1em" xmlns="http://www.w3.org/2000/svg">
    <title>SenseNova</title>
    <style>
        @keyframes glitch {
            0% { transform: translate(0); filter: drop-shadow(0 0 #06FDB7); }
            15% { transform: translate(-1px, 1px); }
            30% { transform: translate(1px, -1px); filter: drop-shadow(2px 2px 0px #FF00FF); }
            45% { transform: translate(0px, 2px); }
            60% { transform: translate(-2px, 0px); filter: drop-shadow(-2px -2px 0px #00FFFF); }
            75% { transform: translate(1px, -1px); opacity: 0.8; }
            90% { transform: translate(-1px, 1px); filter: drop-shadow(0 0 #06FDB7); }
            100% { transform: translate(0); }
        }

        .glitch-green {
            animation: glitch 2s infinite linear;
        }

        .glitch-purple {
            animation: glitch 2s infinite linear 0.3s;
        }
    </style>

    <!-- Glitch Shapes -->
    <g fill="none" fill-rule="evenodd">
        <!-- Purple Base Shapes -->
        <path class="glitch-purple" d="M1 1v14.667h7.333V8.333h7.334V1H1z" fill="#5B2AD8"></path>
        <path class="glitch-purple" d="M23 15.667h-7.333V23H23v-7.333z" fill="#5B2AD8"></path>

        <!-- Green Base Shapes -->
        <path class="glitch-green" d="M23 8.333h-7.333v7.334H23V8.333z" fill="#06FDB7"></path>
        <path class="glitch-green" d="M15.667 15.667H8.333V23h7.334v-7.333z" fill="#06FDB7"></path>
    </g>

    <!-- Static Lines -->
    <g fill="#06FDB7">
        <path d="M14.038 4.333h.17l1.459 1.456v.17l-1.63-1.626z"></path>
        <path d="M13.224 4.333h.17l2.273 2.268v.17l-2.443-2.438z"></path>
        <path d="M12.41 4.333h.17l3.087 3.08v.17l-3.257-3.25z"></path>
        <path d="M11.596 4.333h.17l3.9 3.892v.108h-.06l-4.01-4z"></path>
        <path d="M10.782 4.333h.17l4.01 4h-.17l-4.01-4z"></path>
    </g>
</svg>